HIERARCHY
ROOT Hips
{
	OFFSET 0.000000 0.000000 0.000000
	CHANNELS 6 Xposition Yposition Zposition Xrotation Yrotation Zrotation
	JOINT LeftUpLeg_virtual
	{
		OFFSET 0.000000 0.000000 0.000000
		CHANNELS 3 Xrotation Yrotation Zrotation
		JOINT LeftUpLeg
		{
			OFFSET 13.026900 -6.336304 -1.092800
			CHANNELS 3 Xrotation Yrotation Zrotation
			JOINT LeftLeg
			{
				OFFSET 0.524474 -46.096886 9.782700
				CHANNELS 3 Xrotation Yrotation Zrotation
				JOINT LeftFoot
				{
					OFFSET -0.524474 -53.427422 -12.948200
					CHANNELS 3 Xrotation Yrotation Zrotation
					JOINT LeftToeBase
					{
						OFFSET 0.192200 -14.009700 16.364100
						CHANNELS 3 Xrotation Yrotation Zrotation
						JOINT LeftToe_End
						{
							OFFSET -1.784700 -0.561700 9.474800
							CHANNELS 3 Xrotation Yrotation Zrotation
							End Site
							{
								OFFSET 0 0 0
							}
						}
					}
				}
			}
		}
	}
	JOINT RightUpLeg_virtual
	{
		OFFSET 0.000000 0.000000 0.000000
		CHANNELS 3 Xrotation Yrotation Zrotation
		JOINT RightUpLeg
		{
			OFFSET -12.883000 -6.336304 -1.092800
			CHANNELS 3 Xrotation Yrotation Zrotation
			JOINT RightLeg
			{
				OFFSET -0.524587 -46.096825 9.782800
				CHANNELS 3 Xrotation Yrotation Zrotation
				JOINT RightFoot
				{
					OFFSET 0.524587 -53.427383 -12.948300
					CHANNELS 3 Xrotation Yrotation Zrotation
					JOINT RightToeBase
					{
						OFFSET -0.192200 -14.009700 16.364100
						CHANNELS 3 Xrotation Yrotation Zrotation
						JOINT RightToe_End
						{
							OFFSET 1.784700 -0.561700 9.474800
							CHANNELS 3 Xrotation Yrotation Zrotation
							End Site
							{
								OFFSET 0 0 0
							}
						}
					}
				}
			}
		}
	}
	JOINT Spine_virtual
	{
		OFFSET 0.000000 0.000000 0.000000
		CHANNELS 3 Xrotation Yrotation Zrotation
		JOINT Spine
		{
			OFFSET 0.072000 7.257294 -0.789700
			CHANNELS 3 Xrotation Yrotation Zrotation
			JOINT Spine1
			{
				OFFSET 0.000000 12.508769 -0.658067
				CHANNELS 3 Xrotation Yrotation Zrotation
				JOINT Spine1_split
				{
					OFFSET 0.000000 12.508769 -0.658067
					CHANNELS 3 Xrotation Yrotation Zrotation
					JOINT Spine2
					{
						OFFSET 0.000000 12.508769 -0.658067
						CHANNELS 3 Xrotation Yrotation Zrotation
						JOINT Neck_virtual
						{
							OFFSET 0.000000 0.000000 0.000000
							CHANNELS 3 Xrotation Yrotation Zrotation
							JOINT Neck
							{
								OFFSET 0.000000 14.033295 7.520400
								CHANNELS 3 Xrotation Yrotation Zrotation
								JOINT Head
								{
									OFFSET 0.000000 8.198502 5.703100
									CHANNELS 3 Xrotation Yrotation Zrotation
									JOINT HeadTop_End
									{
										OFFSET 0.000000 17.760803 13.332701
										CHANNELS 3 Xrotation Yrotation Zrotation
										End Site
										{
											OFFSET 0 0 0
										}
									}
								}
							}
						}
						JOINT LeftShoulder_virtual
						{
							OFFSET 0.000000 0.000000 0.000000
							CHANNELS 3 Xrotation Yrotation Zrotation
							JOINT LeftShoulder
							{
								OFFSET 6.292450 5.785301 -0.669000
								CHANNELS 3 Xrotation Yrotation Zrotation
								JOINT LeftShoulder_split
								{
									OFFSET 6.292450 5.785301 -0.669000
									CHANNELS 3 Xrotation Yrotation Zrotation
									JOINT LeftArm
									{
										OFFSET 13.907140 -6.093903 1.965100
										CHANNELS 3 Xrotation Yrotation Zrotation
										JOINT LeftForeArm
										{
											OFFSET 34.140198 0.000000 0.000000
											CHANNELS 3 Xrotation Yrotation Zrotation
											JOINT LeftHand
											{
												OFFSET 40.960209 0.000000 0.000000
												CHANNELS 3 Xrotation Yrotation Zrotation
												End Site
												{
													OFFSET 0 0 0
												}
											}
										}
									}
								}
							}
						}
						JOINT RightShoulder_virtual
						{
							OFFSET 0.000000 0.000000 0.000000
							CHANNELS 3 Xrotation Yrotation Zrotation
							JOINT RightShoulder
							{
								OFFSET -6.292450 5.785301 -0.669000
								CHANNELS 3 Xrotation Yrotation Zrotation
								JOINT RightShoulder_split
								{
									OFFSET -6.292450 5.785301 -0.669000
									CHANNELS 3 Xrotation Yrotation Zrotation
									JOINT RightArm
									{
										OFFSET -13.907140 -6.093903 1.965100
										CHANNELS 3 Xrotation Yrotation Zrotation
										JOINT RightForeArm
										{
											OFFSET -34.140198 0.000000 0.000000
											CHANNELS 3 Xrotation Yrotation Zrotation
											JOINT RightHand
											{
												OFFSET -40.960209 0.000000 0.000000
												CHANNELS 3 Xrotation Yrotation Zrotation
												End Site
												{
													OFFSET 0 0 0
												}
											}
										}
									}
								}
							}
						}
					}
				}
			}
		}
	}
}
MOTION
Frames: 6
Frame Time: 0.03333333
-165.547928 41.291958 10.822517 0.000000 0.000000 0.000000 7.681025 20.104827 -42.599893 -113.097250 -0.617877 3.710972 16.452850 8.213630 2.125576 39.856094 -3.926166 23.485098 -5.992622 2.206762 1.175278 0.000000 0.000000 0.000000 10.217068 23.216284 -46.541093 -55.550448 -14.457656 -7.636912 103.116042 9.355515 -5.733944 -8.948675 23.021387 5.718110 -38.483181 1.803784 -0.649129 0.000000 0.000000 0.000000 4.133381 10.483440 -48.040450 26.501424 -4.542395 -13.954635 3.245696 1.679743 -3.200225 2.725089 3.930416 3.626765 0.000000 0.000000 0.000000 4.450751 1.294506 -3.260973 -1.622616 -0.057035 2.222730 -4.044282 19.738591 4.072350 0.000000 0.000000 0.000000 3.650967 1.705978 -2.946380 0.877181 -21.954335 -12.262030 -1.787207 -4.836518 -2.632151 -41.340956 32.596555 -10.119227 3.584505 -70.209973 5.159256 0.000000 0.000000 0.000000 3.953957 1.193761 -3.533016 2.449135 9.163006 0.074578 9.184725 9.615003 -1.410790 -48.358231 -33.639351 -12.313357 -1.720224 49.523769 0.640241 0.000000 0.000000 0.000000 
-163.692245 44.560436 9.557140 0.000000 0.000000 0.000000 7.962365 17.249725 -45.919990 -114.236218 0.607975 4.877124 28.361266 12.647553 2.753417 33.796439 -1.828092 23.259275 -6.054072 2.168832 1.246886 0.000000 0.000000 0.000000 10.969218 21.345454 -50.248578 -54.275620 -16.045081 -2.477112 97.606627 8.549362 -8.180915 -7.809341 22.351371 9.830418 -37.210676 1.569067 0.332635 0.000000 0.000000 0.000000 4.348897 10.360361 -50.688664 26.118567 -5.596335 -13.870050 3.632827 1.323533 -3.213141 3.395229 5.229979 3.051109 0.000000 0.000000 0.000000 4.404239 0.966092 -3.336764 -1.229492 0.339734 2.514740 -4.327338 21.040763 4.230404 0.000000 0.000000 0.000000 3.840232 1.384172 -3.231285 1.811930 -21.155404 -11.180085 -2.050598 -4.914814 -2.696572 -44.524948 29.904283 -8.217697 3.042330 -67.321227 4.786535 0.000000 0.000000 0.000000 4.319218 1.058841 -3.538716 2.297583 8.320289 -0.877173 8.743739 8.401121 -1.771976 -48.631647 -38.546067 -15.645723 -1.364147 50.793009 0.483840 0.000000 0.000000 0.000000 
-161.921005 47.924374 8.171104 0.000000 0.000000 0.000000 8.768665 13.289131 -50.094926 -115.666057 1.620848 6.621864 46.945406 16.795454 2.650865 24.779332 -0.422951 23.899139 -8.692989 1.867258 1.783622 0.000000 0.000000 0.000000 12.286164 18.063636 -54.464017 -53.647810 -17.927297 1.629207 90.613661 7.836007 -8.923214 -4.557683 22.119091 12.405979 -36.501579 1.310250 1.249613 0.000000 0.000000 0.000000 5.626132 9.125654 -53.767860 25.748160 -6.570460 -13.138385 3.794500 0.791448 -3.133457 3.737866 6.031493 2.244159 0.000000 0.000000 0.000000 4.180348 0.439195 -3.220017 -1.112680 0.898390 2.777016 -5.058054 22.168279 4.803296 0.000000 0.000000 0.000000 3.844118 0.890307 -3.392332 2.645643 -20.111752 -9.860298 -2.035391 -4.509562 -2.907796 -48.504271 26.487829 -5.856061 2.372666 -63.957960 4.042929 0.000000 0.000000 0.000000 4.498602 0.748611 -3.350513 2.033872 7.170150 -1.256259 8.214402 6.944609 -2.176971 -50.223549 -44.350659 -17.825660 -1.066650 53.118675 0.439136 0.000000 0.000000 0.000000 
-160.278458 51.651974 6.456856 0.000000 0.000000 0.000000 9.763712 9.512044 -54.179427 -116.686883 2.081241 8.256601 68.257256 18.841832 1.973568 15.683455 -0.655628 23.818980 -13.525083 1.252595 2.708146 0.000000 0.000000 0.000000 13.331037 13.750664 -58.434522 -55.069660 -20.404832 3.834485 82.485080 6.581617 -7.708187 1.110448 21.876929 13.733608 -35.027457 1.179012 1.805744 0.000000 0.000000 0.000000 7.566692 7.213423 -56.749498 25.437460 -7.517021 -12.009295 3.663204 0.125127 -2.996841 2.966788 5.846343 1.278896 0.000000 0.000000 0.000000 3.823125 -0.224698 -2.950985 -1.199583 1.549430 2.952257 -6.239391 22.951030 5.865219 0.000000 0.000000 0.000000 3.631826 0.280223 -3.436088 3.302128 -18.899079 -8.274504 -1.248300 -3.730350 -2.905308 -52.604546 22.965753 -3.597464 1.715449 -61.265035 3.004635 0.000000 0.000000 0.000000 4.448973 0.284592 -3.042408 1.710053 5.732695 -1.227464 7.803751 5.455215 -2.576937 -52.547371 -50.842490 -18.803041 -0.882504 56.207717 0.543437 0.000000 0.000000 0.000000 
-158.950317 55.789158 4.414642 0.000000 0.000000 0.000000 10.577930 5.804021 -57.354383 -116.072522 1.667458 9.161969 86.601492 17.686775 2.719631 8.470362 -1.658777 20.895311 -18.864451 0.476383 3.755192 0.000000 0.000000 0.000000 14.375887 9.363988 -61.493935 -58.622633 -23.047261 3.726701 74.084986 5.420588 -5.617618 8.065570 21.653100 15.270107 -31.767121 1.245801 1.743437 0.000000 0.000000 0.000000 9.620587 4.625244 -59.278085 25.372355 -8.546233 -10.931845 3.338270 -0.557531 -2.879582 1.905709 4.493115 0.631200 0.000000 0.000000 0.000000 3.445605 -0.937163 -2.606054 -1.405234 2.158024 2.952418 -7.774619 23.181715 7.292995 0.000000 0.000000 0.000000 3.237300 -0.357561 -3.422742 3.717840 -18.005004 -6.445813 0.099879 -2.597529 -2.742928 -56.969170 19.184091 -1.720936 1.453952 -58.736055 1.965265 0.000000 0.000000 0.000000 4.249160 -0.286103 -2.703944 1.373342 4.309363 -0.921178 7.819455 4.283105 -3.069467 -54.376215 -57.575080 -18.227019 -0.757524 58.939608 0.697979 0.000000 0.000000 0.000000 
-158.106476 59.881729 1.756729 0.000000 0.000000 0.000000 11.704011 2.406079 -59.171397 -111.693120 1.682655 9.843276 97.656856 16.166394 3.855130 -1.112966 -1.756252 19.112999 -21.612964 -0.222972 4.316962 0.000000 0.000000 0.000000 15.378593 5.222098 -63.178348 -64.440410 -25.191556 1.375819 66.183700 4.519293 -3.143669 15.448464 21.705370 16.853874 -26.610101 1.493108 1.088245 0.000000 0.000000 0.000000 11.599229 1.928383 -60.881451 25.729690 -9.710161 -10.085855 2.934079 -1.166542 -2.820716 1.143698 2.622536 0.415013 0.000000 0.000000 0.000000 3.123692 -1.629564 -2.269229 -1.736719 2.652672 2.800897 -9.517304 22.819327 8.874170 0.000000 0.000000 0.000000 2.800981 -0.957777 -3.398558 3.905178 -17.846663 -4.365987 1.512765 -1.482876 -2.488243 -61.502739 14.984079 -0.296843 1.408647 -55.135387 1.009735 0.000000 0.000000 0.000000 4.003868 -0.878619 -2.415632 1.071847 3.317141 -0.443157 7.952833 3.619914 -3.873354 -53.944431 -63.908536 -15.227862 -0.617787 60.255157 0.812383 0.000000 0.000000 0.000000 
